<?xml version="1.0" encoding="utf-8"?>
<!-- Generator: Adobe Illustrator 24.2.3, SVG Export Plug-In . SVG Version: 6.00 Build 0)  -->
<svg version="1.1" id="Layer_1" xmlns="http://www.w3.org/2000/svg" xmlns:xlink="http://www.w3.org/1999/xlink" x="0px" y="0px"
	 viewBox="0 0 216 144" style="enable-background:new 0 0 216 144;" xml:space="preserve">
<style type="text/css">
	.st0{fill:none;stroke:#231F20;stroke-miterlimit:10;}
	.st1{fill:#231F20;}
	.st2{fill:#FFFFFF;}
	.st3{font-family:'HelveticaNeue';}
	.st4{font-size:24px;}
</style>
<line class="st0" x1="76.35" y1="100.21" x2="34.99" y2="121.94"/>
<line class="st0" x1="68.84" y1="22.05" x2="136.78" y2="41.02"/>
<line class="st0" x1="68.84" y1="22.05" x2="76.35" y2="100.21"/>
<line class="st0" x1="76.35" y1="100.21" x2="150.74" y2="120.91"/>
<line class="st0" x1="189.29" y1="73.78" x2="136.78" y2="41.02"/>
<line class="st0" x1="136.78" y1="41.02" x2="76.35" y2="100.21"/>
<circle class="st1" cx="68.84" cy="22.06" r="12.65"/>
<text transform="matrix(1 0 0 1 61.2499 30.1096)" class="st2 st3 st4">1</text>
<circle class="st1" cx="136.78" cy="41.02" r="12.65"/>
<text transform="matrix(1 0 0 1 130.0165 48.4474)" class="st2 st3 st4">2</text>
<circle class="st1" cx="76.35" cy="100.21" r="12.65"/>
<text transform="matrix(1 0 0 1 68.7519 108.2536)" class="st2 st3 st4">4</text>
<circle class="st1" cx="150.74" cy="120.91" r="12.65"/>
<text transform="matrix(1 0 0 1 144.1869 129.5993)" class="st2 st3 st4">5</text>
<circle class="st1" cx="189.29" cy="73.78" r="12.65"/>
<text transform="matrix(1 0 0 1 183.3622 81.6213)" class="st2 st3 st4">3</text>
<circle class="st1" cx="34.99" cy="121.94" r="12.65"/>
<text transform="matrix(1 0 0 1 28.4345 130.6325)" class="st2 st3 st4">6</text>
</svg>
